<svg width="100" height="40" viewBox="0 0 100 40" fill="#000000" xmlns="http://www.w3.org/2000/svg">
<g clip-path="url(#clip0_755_15228)">
<path d="M66.4769 10.0089H83.8952V13.2239H76.9856V30.1373H73.5305V13.2239H66.4769V10.0089Z" fill="#000000"/>
<path d="M37.8304 10.0089V13.2239H23.8685V18.3957H35.0967V21.6107H23.8685V26.9224H37.8304V30.1373H20.4137V13.2239H20.4122V10.0089H37.8304Z" fill="#000000"/>
<path d="M46.5279 10.0173H42.0066L58.201 30.1457H62.7355L54.6373 20.0884L62.7226 10.0326L58.201 10.0396L52.3736 17.2771L46.5279 10.0173Z" fill="#000000"/>
<path d="M51.1675 24.3951L48.9033 21.5799L41.9937 30.161H46.5279L51.1675 24.3951Z" fill="#000000"/>
<path fill-rule="evenodd" clip-rule="evenodd" d="M20.5348 30.1373L4.31855 10.0005H0V30.1289H3.45485V14.3029L16.1946 30.1373H20.5348Z" fill="#000000"/>
<path d="M84.6718 30.0143C84.4188 30.0143 84.2035 29.9267 84.0233 29.7514C83.8431 29.5761 83.754 29.3639 83.7563 29.1124C83.754 28.8679 83.8431 28.658 84.0233 28.4827C84.2035 28.3074 84.4188 28.2197 84.6718 28.2197C84.9152 28.2197 85.1282 28.3074 85.3084 28.4827C85.4911 28.658 85.5822 28.8679 85.5848 29.1124C85.5822 29.2785 85.5401 29.4307 85.4558 29.5668C85.3693 29.7053 85.2594 29.8137 85.1211 29.8921C84.9853 29.9728 84.8355 30.0143 84.6718 30.0143Z" fill="#000000"/>
<path d="M90.5685 21.5349H92.0995V27.4332C92.0972 27.9752 91.98 28.4389 91.7508 28.8287C91.519 29.2186 91.1982 29.5161 90.7863 29.726C90.3767 29.9336 89.8967 30.0397 89.3513 30.0397C88.8526 30.0397 88.4056 29.9498 88.0076 29.7745C87.6097 29.5992 87.2937 29.3362 87.0619 28.9902C86.8277 28.6442 86.713 28.2128 86.713 27.6961H88.2465C88.2487 27.9222 88.3003 28.1182 88.3985 28.282C88.4967 28.4458 88.6325 28.5703 88.8058 28.658C88.9812 28.7457 89.1827 28.7895 89.4097 28.7895C89.6556 28.7895 89.8663 28.7387 90.0371 28.6349C90.2079 28.5334 90.3391 28.3812 90.4305 28.1782C90.5193 27.9775 90.5663 27.7284 90.5685 27.4332V21.5349Z" fill="#000000"/>
<path d="M98.3987 23.8416C98.3614 23.484 98.1975 23.2049 97.9119 23.0065C97.6239 22.8058 97.2518 22.7067 96.7952 22.7067C96.4746 22.7067 96.1985 22.7551 95.969 22.8497C95.7396 22.9466 95.5617 23.0757 95.4398 23.2395C95.3183 23.4033 95.2574 23.5901 95.2525 23.8001C95.2525 23.9754 95.2947 24.1276 95.3766 24.2545C95.4586 24.3836 95.5685 24.4921 95.7114 24.5797C95.8518 24.6697 96.0086 24.7435 96.1797 24.8035C96.3528 24.8634 96.5261 24.9142 96.6992 24.9557L97.4975 25.1518C97.8183 25.2256 98.1297 25.3248 98.4269 25.4517C98.7241 25.5762 98.9934 25.7354 99.2297 25.9268C99.4662 26.1183 99.6535 26.349 99.7916 26.6189C99.9297 26.8887 100 27.2048 100 27.5692C100 28.0605 99.8736 28.4919 99.6183 28.8656C99.3632 29.237 98.9957 29.5276 98.5134 29.7376C98.0335 29.9452 97.453 30.0513 96.7695 30.0513C96.1094 30.0513 95.5335 29.9498 95.049 29.7468C94.5622 29.5461 94.1827 29.2508 93.9089 28.8633C93.635 28.4758 93.4876 28.0029 93.4665 27.447H94.9835C95.0046 27.7376 95.0982 27.9798 95.2574 28.1759C95.4188 28.3697 95.6294 28.5127 95.8871 28.6096C96.147 28.7041 96.4371 28.7526 96.7579 28.7526C97.0926 28.7526 97.3876 28.7018 97.6426 28.6026C97.8954 28.5034 98.0944 28.3651 98.2373 28.1851C98.3825 28.0075 98.4551 27.7976 98.4574 27.5577C98.4551 27.3386 98.3893 27.1563 98.2629 27.0133C98.1343 26.8703 97.9563 26.7503 97.7292 26.6535C97.5 26.5566 97.233 26.4689 96.9287 26.3928L95.9596 26.1483C95.2596 25.9707 94.7048 25.7008 94.2997 25.3386C93.8926 24.9765 93.6911 24.4967 93.6911 23.8946C93.6911 23.401 93.8269 22.9673 94.101 22.596C94.3723 22.2246 94.7447 21.9362 95.2152 21.7309C95.6881 21.5233 96.2218 21.4218 96.8162 21.4218C97.4203 21.4218 97.9492 21.5233 98.4058 21.7309C98.8622 21.9362 99.2206 22.2223 99.4802 22.5867C99.7401 22.9512 99.8759 23.3687 99.883 23.8416H98.3987Z" fill="#000000"/>
</g>
<defs>
<clipPath id="clip0_755_15228">
<rect width="100" height="20.3046" fill="white" transform="translate(0 10.0005)"/>
</clipPath>
</defs>
</svg>
